<svg width="980" height="866" viewBox="0 0 980 866" fill="none" xmlns="http://www.w3.org/2000/svg">
<g clip-path="url(#clip0_2_8)">
<path d="M0 16H980V882H0V16Z" fill="#029CF6"/>
<path opacity="0.26" d="M939.997 309.812L976.509 288.8C977.421 288.276 978.456 288 979.509 288C980.562 288 981.597 288.276 982.509 288.8L1019 309.812C1019.91 310.337 1020.67 311.092 1021.19 312.002C1021.72 312.911 1022 313.943 1022 314.994V357.006C1022 358.057 1021.72 359.09 1021.19 360C1020.67 360.911 1019.91 361.667 1019 362.194L982.509 383.2C981.597 383.724 980.562 384 979.509 384C978.456 384 977.421 383.724 976.509 383.2L939.997 362.194C939.086 361.667 938.329 360.91 937.803 360C937.277 359.089 937 358.057 937 357.006V314.994C936.999 313.944 937.276 312.912 937.802 312.002C938.328 311.092 939.085 310.337 939.997 309.812Z" fill="#032184"/>
<path opacity="0.59" d="M739.262 482.355L766.744 466.601C767.431 466.207 768.21 466 769.003 466C769.796 466 770.575 466.207 771.262 466.601L798.744 482.355C799.431 482.75 800.001 483.317 800.397 484C800.793 484.683 801.001 485.458 801 486.246V517.754C800.999 518.542 800.791 519.316 800.395 519.998C799.999 520.681 799.43 521.249 798.744 521.645L771.262 537.399C770.575 537.793 769.796 538 769.003 538C768.21 538 767.431 537.793 766.744 537.399L739.262 521.645C738.574 521.25 738.003 520.683 737.606 520C737.209 519.317 737 518.543 737 517.754V486.24C737 485.452 737.209 484.678 737.606 483.996C738.003 483.314 738.575 482.748 739.262 482.355Z" fill="#032184"/>
<path opacity="0.2" d="M700 604H714C717.314 604 720 606.686 720 610V624C720 627.314 717.314 630 714 630H700C696.686 630 694 627.314 694 624V610C694 606.686 696.686 604 700 604Z" fill="white"/>
<path opacity="0.2" d="M797.848 594H830.152C837.8 594 844 600.2 844 607.848V640.152C844 647.8 837.8 654 830.152 654H797.848C790.2 654 784 647.8 784 640.152V607.848C784 600.2 790.2 594 797.848 594Z" fill="white"/>
<path opacity="0.1" d="M842.076 210H874.924C882.698 210 889 216.199 889 223.845V256.155C889 263.801 882.698 270 874.924 270H842.076C834.302 270 828 263.801 828 256.155V223.845C828 216.199 834.302 210 842.076 210Z" fill="white"/>
<path opacity="0.3" d="M527.54 384H568.46C578.147 384 586 391.75 586 401.31V441.69C586 451.25 578.147 459 568.46 459H527.54C517.853 459 510 451.25 510 441.69V401.31C510 391.75 517.853 384 527.54 384Z" fill="white"/>
<path opacity="0.3" d="M657.385 691H681.615C687.351 691 692 695.649 692 701.385V725.615C692 731.351 687.351 736 681.615 736H657.385C651.649 736 647 731.351 647 725.615V701.385C647 695.649 651.649 691 657.385 691Z" fill="white"/>
</g>
<defs>
<clipPath id="clip0_2_8">
<rect width="980" height="866" fill="white"/>
</clipPath>
</defs>
</svg>
