<svg width="147" height="166" viewBox="0 0 147 166" fill="none" xmlns="http://www.w3.org/2000/svg">
<path opacity="0.3" d="M5.19675 37.7108L68.3092 1.38538C69.8887 0.47776 71.6798 0 73.503 0C75.3261 0 77.1173 0.47776 78.6968 1.38538L141.809 37.7108C143.387 38.621 144.697 39.9285 145.608 41.5025C146.519 43.0764 146.999 44.8615 147 46.6786V119.324C146.999 121.14 146.519 122.924 145.608 124.497C144.697 126.07 143.387 127.377 141.809 128.286L78.6908 164.611C77.1121 165.521 75.3207 166 73.4971 166C71.6734 166 69.882 165.521 68.3033 164.611L5.19675 128.286C3.61704 127.378 2.30495 126.073 1.39264 124.499C0.480333 122.926 7.87327e-06 121.141 0 119.324V46.6786C0.000769252 44.8608 0.481407 43.0751 1.39359 41.501C2.30576 39.9269 3.61738 38.6198 5.19675 37.7108Z" fill="#07F9FE"/>
</svg>
